dataset
version=1
nRows=30
nColumns=39
inDegrees=no
endheader
time	sternoclavicular_r2	sternoclavicular_r3	unrotscap_r3	unrotscap_r2	acromioclavicular_r2	acromioclavicular_r3	acromioclavicular_r1	unrothum_r1	unrothum_r3	unrothum_r2	elv_angle	shoulder_elv	shoulder1_r2	shoulder_rot	elbow_flexion	pro_sup	deviation	flexion	cmc_abduction	cmc_flexion	mp_flexion	ip_flexion	mcp2_flexion	mcp2_abduction	pm2_flexion	md2_flexion	mcp3_flexion	mcp3_abduction	pm3_flexion	md3_flexion	mcp4_flexion	mcp4_abduction	pm4_flexion	md4_flexion	mcp5_flexion	mcp5_abduction	pm5_flexion	md5_flexion
7.965000	-0.034220	-0.478324	0.250696	0.133926	0.096936	0.178528	-0.191107	0.070601	-0.059257	0.114568	0.097144	0.027437	0.146525	0.146525	1.116557	1.397085	0.000000	0.000000	0.000000	0.000000	0.000000	0.000000	0.000000	0.000000	0.000000	0.000000	0.000000	0.000000	0.000000	0.000000	0.000000	0.000000	0.000000	0.000000	0.000000	0.000000	0.000000	0.000000
7.970000	-0.034213	-0.478337	0.250476	0.133933	0.096959	0.178452	-0.190898	0.070613	-0.059173	0.114603	0.097204	0.027437	0.146525	0.146525	1.114259	1.398181	0.000000	0.000000	0.000000	0.000000	0.000000	0.000000	0.000000	0.000000	0.000000	0.000000	0.000000	0.000000	0.000000	0.000000	0.000000	0.000000	0.000000	0.000000	0.000000	0.000000	0.000000	0.000000
7.975000	-0.034206	-0.478350	0.250260	0.133941	0.096982	0.178376	-0.190693	0.070623	-0.059089	0.114639	0.097264	0.027437	0.146525	0.146525	1.111979	1.399291	0.000000	0.000000	0.000000	0.000000	0.000000	0.000000	0.000000	0.000000	0.000000	0.000000	0.000000	0.000000	0.000000	0.000000	0.000000	0.000000	0.000000	0.000000	0.000000	0.000000	0.000000	0.000000
7.980000	-0.034199	-0.478361	0.250048	0.133949	0.097007	0.178301	-0.190491	0.070632	-0.059006	0.114676	0.097325	0.027437	0.146525	0.146525	1.109716	1.400415	0.000000	0.000000	0.000000	0.000000	0.000000	0.000000	0.000000	0.000000	0.000000	0.000000	0.000000	0.000000	0.000000	0.000000	0.000000	0.000000	0.000000	0.000000	0.000000	0.000000	0.000000	0.000000
7.985000	-0.034193	-0.478372	0.249841	0.133958	0.097032	0.178226	-0.190294	0.070639	-0.058925	0.114715	0.097386	0.027437	0.146525	0.146525	1.107471	1.401554	0.000000	0.000000	0.000000	0.000000	0.000000	0.000000	0.000000	0.000000	0.000000	0.000000	0.000000	0.000000	0.000000	0.000000	0.000000	0.000000	0.000000	0.000000	0.000000	0.000000	0.000000	0.000000
7.990000	-0.034188	-0.478382	0.249637	0.133969	0.097058	0.178152	-0.190102	0.070645	-0.058844	0.114754	0.097448	0.027437	0.146525	0.146525	1.105243	1.402707	0.000000	0.000000	0.000000	0.000000	0.000000	0.000000	0.000000	0.000000	0.000000	0.000000	0.000000	0.000000	0.000000	0.000000	0.000000	0.000000	0.000000	0.000000	0.000000	0.000000	0.000000	0.000000
7.995000	-0.034183	-0.478391	0.249438	0.133980	0.097085	0.178077	-0.189915	0.070650	-0.058765	0.114795	0.097510	0.027437	0.146525	0.146525	1.103032	1.403875	0.000000	0.000000	0.000000	0.000000	0.000000	0.000000	0.000000	0.000000	0.000000	0.000000	0.000000	0.000000	0.000000	0.000000	0.000000	0.000000	0.000000	0.000000	0.000000	0.000000	0.000000	0.000000
8.000000	-0.034179	-0.478400	0.249244	0.133993	0.097114	0.178004	-0.189732	0.070653	-0.058688	0.114837	0.097572	0.027437	0.146525	0.146525	1.100839	1.405058	0.000000	0.000000	0.000000	0.000000	0.000000	0.000000	0.000000	0.000000	0.000000	0.000000	0.000000	0.000000	0.000000	0.000000	0.000000	0.000000	0.000000	0.000000	0.000000	0.000000	0.000000	0.000000
8.005000	-0.034176	-0.478408	0.249054	0.134007	0.097144	0.177930	-0.189556	0.070655	-0.058613	0.114880	0.097635	0.027437	0.146525	0.146525	1.098664	1.406256	0.000000	0.000000	0.000000	0.000000	0.000000	0.000000	0.000000	0.000000	0.000000	0.000000	0.000000	0.000000	0.000000	0.000000	0.000000	0.000000	0.000000	0.000000	0.000000	0.000000	0.000000	0.000000
8.010000	-0.034174	-0.478417	0.248870	0.134023	0.097175	0.177857	-0.189385	0.070655	-0.058540	0.114925	0.097698	0.027437	0.146525	0.146525	1.096505	1.407470	0.000000	0.000000	0.000000	0.000000	0.000000	0.000000	0.000000	0.000000	0.000000	0.000000	0.000000	0.000000	0.000000	0.000000	0.000000	0.000000	0.000000	0.000000	0.000000	0.000000	0.000000	0.000000
8.015000	-0.034173	-0.478425	0.248691	0.134040	0.097207	0.177784	-0.189219	0.070655	-0.058469	0.114971	0.097762	0.027437	0.146525	0.146525	1.094364	1.408700	0.000000	0.000000	0.000000	0.000000	0.000000	0.000000	0.000000	0.000000	0.000000	0.000000	0.000000	0.000000	0.000000	0.000000	0.000000	0.000000	0.000000	0.000000	0.000000	0.000000	0.000000	0.000000
8.020000	-0.034173	-0.478434	0.248517	0.134058	0.097241	0.177711	-0.189060	0.070653	-0.058402	0.115019	0.097826	0.027437	0.146525	0.146525	1.092240	1.409945	0.000000	0.000000	0.000000	0.000000	0.000000	0.000000	0.000000	0.000000	0.000000	0.000000	0.000000	0.000000	0.000000	0.000000	0.000000	0.000000	0.000000	0.000000	0.000000	0.000000	0.000000	0.000000
8.025000	-0.034174	-0.478443	0.248348	0.134078	0.097277	0.177638	-0.188907	0.070650	-0.058337	0.115069	0.097891	0.027437	0.146525	0.146525	1.090133	1.411207	0.000000	0.000000	0.000000	0.000000	0.000000	0.000000	0.000000	0.000000	0.000000	0.000000	0.000000	0.000000	0.000000	0.000000	0.000000	0.000000	0.000000	0.000000	0.000000	0.000000	0.000000	0.000000
8.030000	-0.034176	-0.478452	0.248186	0.134099	0.097314	0.177564	-0.188760	0.070647	-0.058275	0.115120	0.097957	0.027437	0.146525	0.146525	1.088043	1.412485	0.000000	0.000000	0.000000	0.000000	0.000000	0.000000	0.000000	0.000000	0.000000	0.000000	0.000000	0.000000	0.000000	0.000000	0.000000	0.000000	0.000000	0.000000	0.000000	0.000000	0.000000	0.000000
8.035000	-0.034179	-0.478462	0.248029	0.134122	0.097352	0.177491	-0.188620	0.070642	-0.058216	0.115173	0.098022	0.027437	0.146525	0.146525	1.085971	1.413780	0.000000	0.000000	0.000000	0.000000	0.000000	0.000000	0.000000	0.000000	0.000000	0.000000	0.000000	0.000000	0.000000	0.000000	0.000000	0.000000	0.000000	0.000000	0.000000	0.000000	0.000000	0.000000
8.040000	-0.034184	-0.478473	0.247878	0.134146	0.097392	0.177418	-0.188487	0.070637	-0.058160	0.115228	0.098088	0.027437	0.146525	0.146525	1.083915	1.415092	0.000000	0.000000	0.000000	0.000000	0.000000	0.000000	0.000000	0.000000	0.000000	0.000000	0.000000	0.000000	0.000000	0.000000	0.000000	0.000000	0.000000	0.000000	0.000000	0.000000	0.000000	0.000000
8.045000	-0.034189	-0.478484	0.247732	0.134172	0.097434	0.177345	-0.188360	0.070630	-0.058108	0.115284	0.098155	0.027437	0.146525	0.146525	1.081877	1.416422	0.000000	0.000000	0.000000	0.000000	0.000000	0.000000	0.000000	0.000000	0.000000	0.000000	0.000000	0.000000	0.000000	0.000000	0.000000	0.000000	0.000000	0.000000	0.000000	0.000000	0.000000	0.000000
8.050000	-0.034196	-0.478496	0.247593	0.134200	0.097477	0.177272	-0.188240	0.070623	-0.058059	0.115342	0.098222	0.027437	0.146525	0.146525	1.079856	1.417768	0.000000	0.000000	0.000000	0.000000	0.000000	0.000000	0.000000	0.000000	0.000000	0.000000	0.000000	0.000000	0.000000	0.000000	0.000000	0.000000	0.000000	0.000000	0.000000	0.000000	0.000000	0.000000
8.055000	-0.034204	-0.478508	0.247460	0.134229	0.097522	0.177198	-0.188127	0.070615	-0.058014	0.115402	0.098289	0.027437	0.146525	0.146525	1.077853	1.419133	0.000000	0.000000	0.000000	0.000000	0.000000	0.000000	0.000000	0.000000	0.000000	0.000000	0.000000	0.000000	0.000000	0.000000	0.000000	0.000000	0.000000	0.000000	0.000000	0.000000	0.000000	0.000000
8.060000	-0.034213	-0.478522	0.247333	0.134260	0.097569	0.177125	-0.188021	0.070607	-0.057973	0.115464	0.098357	0.027437	0.146525	0.146525	1.075866	1.420515	0.000000	0.000000	0.000000	0.000000	0.000000	0.000000	0.000000	0.000000	0.000000	0.000000	0.000000	0.000000	0.000000	0.000000	0.000000	0.000000	0.000000	0.000000	0.000000	0.000000	0.000000	0.000000
8.065000	-0.034224	-0.478536	0.247211	0.134292	0.097617	0.177051	-0.187922	0.070597	-0.057935	0.115528	0.098425	0.027437	0.146525	0.146525	1.073897	1.421916	0.000000	0.000000	0.000000	0.000000	0.000000	0.000000	0.000000	0.000000	0.000000	0.000000	0.000000	0.000000	0.000000	0.000000	0.000000	0.000000	0.000000	0.000000	0.000000	0.000000	0.000000	0.000000
8.070000	-0.034236	-0.478551	0.247096	0.134326	0.097667	0.176977	-0.187830	0.070587	-0.057901	0.115593	0.098494	0.027437	0.146525	0.146525	1.071945	1.423335	0.000000	0.000000	0.000000	0.000000	0.000000	0.000000	0.000000	0.000000	0.000000	0.000000	0.000000	0.000000	0.000000	0.000000	0.000000	0.000000	0.000000	0.000000	0.000000	0.000000	0.000000	0.000000
8.075000	-0.034249	-0.478567	0.246987	0.134362	0.097718	0.176903	-0.187745	0.070576	-0.057871	0.115660	0.098563	0.027437	0.146525	0.146525	1.070010	1.424773	0.000000	0.000000	0.000000	0.000000	0.000000	0.000000	0.000000	0.000000	0.000000	0.000000	0.000000	0.000000	0.000000	0.000000	0.000000	0.000000	0.000000	0.000000	0.000000	0.000000	0.000000	0.000000
8.080000	-0.034263	-0.478584	0.246884	0.134399	0.097771	0.176829	-0.187666	0.070565	-0.057845	0.115728	0.098632	0.027437	0.146525	0.146525	1.068092	1.426230	0.000000	0.000000	0.000000	0.000000	0.000000	0.000000	0.000000	0.000000	0.000000	0.000000	0.000000	0.000000	0.000000	0.000000	0.000000	0.000000	0.000000	0.000000	0.000000	0.000000	0.000000	0.000000
8.085000	-0.034279	-0.478602	0.246787	0.134437	0.097825	0.176754	-0.187595	0.070553	-0.057822	0.115798	0.098701	0.027437	0.146525	0.146525	1.066192	1.427707	0.000000	0.000000	0.000000	0.000000	0.000000	0.000000	0.000000	0.000000	0.000000	0.000000	0.000000	0.000000	0.000000	0.000000	0.000000	0.000000	0.000000	0.000000	0.000000	0.000000	0.000000	0.000000
8.090000	-0.034295	-0.478621	0.246695	0.134477	0.097881	0.176679	-0.187531	0.070540	-0.057804	0.115870	0.098771	0.027437	0.146525	0.146525	1.064308	1.429203	0.000000	0.000000	0.000000	0.000000	0.000000	0.000000	0.000000	0.000000	0.000000	0.000000	0.000000	0.000000	0.000000	0.000000	0.000000	0.000000	0.000000	0.000000	0.000000	0.000000	0.000000	0.000000
8.095000	-0.034313	-0.478640	0.246610	0.134518	0.097939	0.176604	-0.187473	0.070527	-0.057789	0.115943	0.098840	0.027437	0.146525	0.146525	1.062442	1.430720	0.000000	0.000000	0.000000	0.000000	0.000000	0.000000	0.000000	0.000000	0.000000	0.000000	0.000000	0.000000	0.000000	0.000000	0.000000	0.000000	0.000000	0.000000	0.000000	0.000000	0.000000	0.000000
8.100000	-0.034332	-0.478661	0.246531	0.134560	0.097997	0.176529	-0.187423	0.070514	-0.057778	0.116018	0.098910	0.027437	0.146525	0.146525	1.060592	1.432257	0.000000	0.000000	0.000000	0.000000	0.000000	0.000000	0.000000	0.000000	0.000000	0.000000	0.000000	0.000000	0.000000	0.000000	0.000000	0.000000	0.000000	0.000000	0.000000	0.000000	0.000000	0.000000
8.105000	-0.034353	-0.478682	0.246457	0.134604	0.098057	0.176454	-0.187379	0.070499	-0.057771	0.116094	0.098980	0.027437	0.146525	0.146525	1.058760	1.433814	0.000000	0.000000	0.000000	0.000000	0.000000	0.000000	0.000000	0.000000	0.000000	0.000000	0.000000	0.000000	0.000000	0.000000	0.000000	0.000000	0.000000	0.000000	0.000000	0.000000	0.000000	0.000000
8.110000	-0.034374	-0.478704	0.246389	0.134649	0.098118	0.176378	-0.187341	0.070484	-0.057768	0.116172	0.099049	0.027437	0.146525	0.146525	1.056944	1.435393	0.000000	0.000000	0.000000	0.000000	0.000000	0.000000	0.000000	0.000000	0.000000	0.000000	0.000000	0.000000	0.000000	0.000000	0.000000	0.000000	0.000000	0.000000	0.000000	0.000000	0.000000	0.000000
